# xmcd CD database file
#
# Track frame offsets:
#	210
#	10348
#	21395
#	33312
#	45941
#	58424
#	68578
#	78944
#	89792
#	98320
#	109574
#	121576
#	133056
#	141354
#	149729
#	159720
#	169163
#	180224
#	192343
#	204097
#	212156
#	223424
#	233322
#	243610
#	252463
#
# Disc length: 3525 seconds
#
# Revision: 1
# Processed by: cddbd v1.4PL0 Copyright (c) Steve Scherf et al.
# Submitted via: CDex 1.40Beta9
#
DISCID=620dc319
DTITLE=Johnny Cash - Dostavník 1
DYEAR=1997
DGENRE=Dream
TTITLE0=Hey Porter
TTITLE1=Cry, Cry, Cry
TTITLE2=So Doggone Lonesome
TTITLE3=Folsom Prison Blues
TTITLE4=I Walk The Line
TTITLE5=Get Rhytm
TTITLE6=There You Go
TTITLE7=Train Of Love
TTITLE8=Country Boy
TTITLE9=Don't Make Me Go
TTITLE10=Home Of The Blues
TTITLE11=Big River
TTITLE12=Guess Things Happen That Way
TTITLE13=Sugartime
TTITLE14=Ballad A Teenage Queen
TTITLE15=Luther Played The Boogie
TTITLE16=The Ways Of Woman In Love
TTITLE17=You Are The Nearest Thing To Heaven
TTITLE18=Thanks A Lot
TTITLE19=I Can't Help It
TTITLE20=Oh Lonesome Me
TTITLE21=Rock Island Line
TTITLE22=Straight A's In Love
TTITLE23=Katy Too
TTITLE24=Give My Love To Rose
EXTD=YEAR: 1997 ID3G: 55
EXTT0=
EXTT1=
EXTT2=
EXTT3=
EXTT4=
EXTT5=
EXTT6=
EXTT7=
EXTT8=
EXTT9=
EXTT10=
EXTT11=
EXTT12=
EXTT13=
EXTT14=
EXTT15=
EXTT16=
EXTT17=
EXTT18=
EXTT19=
EXTT20=
EXTT21=
EXTT22=
EXTT23=
EXTT24=
PLAYORDER=
